<svg width="535" height="494" viewBox="0 0 535 494" fill="none" xmlns="http://www.w3.org/2000/svg">
<path d="M510.682 171.647C504.922 170.551 499.003 170.602 493.263 171.799C487.523 172.996 482.076 175.314 477.234 178.62C458.026 190.947 454.237 205.957 456.825 223.848C462.591 263.711 527.781 254.98 533.418 205.081C534.036 205.081 537.211 177.702 510.682 171.647Z" fill="#1166B5"/>
<path d="M510.876 170.672C474.348 162.43 437.231 208.57 463.639 233.655C463.639 233.849 463.445 234.043 463.445 234.237C463.445 234.517 463.689 239.104 463.835 239.68C463.835 240.076 464.167 240.457 465 240.457C466.317 240.457 465.584 238.706 465.584 236.569C465.584 233.939 464.849 236.289 472.776 239.68C472.229 240.241 472.193 240.64 472.776 245.317C472.776 246.021 473.304 246.094 473.941 246.094C475.449 246.094 474.332 244.317 474.332 240.264C477.288 241.28 480.353 241.931 483.466 242.209C482.591 243.085 483.466 245.224 483.466 248.234C483.466 248.548 483.882 249.011 484.634 249.011C485.945 249.011 485.218 247.391 485.218 245.513C485.208 244.401 485.077 243.293 484.828 242.209C493.69 242.209 493.188 241.14 493.188 241.819C493.188 242.79 493.575 246.389 493.575 247.456C493.568 247.588 493.587 247.72 493.633 247.845C493.679 247.969 493.75 248.082 493.842 248.177C493.955 248.3 494.098 248.39 494.256 248.441C494.414 248.492 494.583 248.501 494.746 248.468C494.909 248.434 495.061 248.359 495.186 248.25C495.312 248.14 495.406 248 495.462 247.843C495.508 247.72 495.528 247.588 495.521 247.456C495.697 245.364 495.499 243.258 494.937 241.235C497.063 240.86 499.147 240.274 501.158 239.486C501.158 241.67 501.545 243.818 501.545 244.736C501.538 244.868 501.557 245 501.603 245.124C501.649 245.248 501.72 245.362 501.812 245.457C501.948 245.603 502.126 245.703 502.322 245.744C502.518 245.784 502.721 245.762 502.904 245.682C503.026 245.63 503.135 245.553 503.226 245.457C503.317 245.361 503.387 245.247 503.432 245.123C503.478 244.999 503.498 244.867 503.491 244.736C503.491 235.924 500.683 240.502 509.321 235.792C509.321 236.738 509.712 240.031 509.712 240.457C509.703 240.587 509.723 240.718 509.77 240.839C509.841 241.021 509.968 241.176 510.131 241.282C510.295 241.389 510.488 241.441 510.683 241.432C512.519 241.432 511.267 238.271 511.267 235.404C511.267 235.211 511.07 235.014 511.07 234.82C519.006 230.191 517.681 228.386 517.681 234.043C517.681 234.3 517.784 234.547 517.966 234.73C518.148 234.912 518.395 235.014 518.653 235.014C518.91 235.014 519.157 234.912 519.339 234.73C519.522 234.547 519.624 234.3 519.624 234.043C519.624 226.135 518.434 230.935 524.483 224.13C524.483 226.32 524.121 227.822 525.455 227.822C525.65 227.833 525.844 227.782 526.008 227.676C526.172 227.57 526.299 227.415 526.37 227.232C526.416 227.111 526.436 226.981 526.429 226.851C526.53 225.228 526.465 223.6 526.232 221.991C543.429 200.827 533.419 175.761 510.876 170.672ZM530.51 211.495C516.011 243.778 465.969 251.776 457.614 219.075C451.82 196.4 478.368 171.449 502.323 171.449C527.919 171.449 538.04 194.724 530.51 211.495Z" fill="white"/>
<path d="M491.826 213.828L511.848 217.909L517.485 184.281L485.022 193.416L491.826 213.828Z" fill="white"/>
<path d="M480.161 197.305L477.247 228.99L506.6 222.382L486.382 218.297L480.161 197.305Z" fill="white"/>
<path d="M100.133 236.764C92.9665 221.394 71.7436 206.782 49.9818 211.299C29.5618 215.532 25.8759 232.682 29.1828 243.178C33.4583 270.97 63.7121 283.631 84.205 276.613C100.094 271.161 106.076 249.506 100.133 236.764Z" fill="#1166B5"/>
<path d="M72.7261 251.536L54.0635 255.037L81.4735 260.868L78.5568 233.07L72.7261 251.536Z" fill="white"/>
<path d="M74.2781 229.766L43.9541 221.603L49.2037 250.955L67.8635 247.455L74.2781 229.766Z" fill="white"/>
<path d="M101.104 236.374C88.0195 207.49 44.2375 200.567 30.9227 222.961C25.7545 231.663 25.4177 244.459 35.7821 255.618C35.7821 260.042 35.4199 261.451 36.7534 261.451C36.8827 261.458 37.0121 261.438 37.1331 261.391C37.254 261.345 37.3639 261.274 37.4555 261.182C37.5471 261.09 37.6184 260.981 37.6648 260.86C37.7111 260.739 37.7315 260.609 37.7247 260.48C37.7247 256.137 36.8825 257.603 42.0029 261.451C42.0029 261.645 41.8092 261.645 41.8092 261.839C41.8092 262.681 42.0029 266.563 42.0029 266.892C42.0029 267.149 42.1053 267.396 42.2874 267.579C42.4696 267.761 42.7166 267.863 42.9742 267.863C43.2319 267.863 43.4789 267.761 43.6611 267.579C43.8432 267.396 43.9456 267.149 43.9456 266.892C44.0062 265.593 43.9414 264.29 43.7519 263.004C45.6103 264.295 47.5416 265.483 49.532 266.561C49.4618 269.455 48.4765 272.529 50.1664 272.529C51.6206 272.529 50.8739 270.99 51.3343 269.612C51.3343 269.028 51.528 268.447 51.528 267.669C59.2619 271.535 56.9712 268.144 56.9712 274.862C56.9712 275.648 56.8505 276.61 57.9425 276.61C58.0719 276.617 58.2013 276.597 58.3222 276.551C58.4432 276.504 58.553 276.433 58.6446 276.341C58.7362 276.25 58.8075 276.14 58.8539 276.019C58.9003 275.898 58.9207 275.769 58.9138 275.639C58.9138 273.537 59.1075 272.4 59.1075 270.974C60.9435 271.585 62.83 272.04 64.7445 272.335C64.3608 274.19 64.1661 276.078 64.1634 277.972C64.1634 278.23 64.2657 278.477 64.4479 278.659C64.6301 278.841 64.8771 278.943 65.1347 278.943C65.3923 278.943 65.6394 278.841 65.8215 278.659C66.0037 278.477 66.106 278.23 66.106 277.972C66.1375 276.281 66.2678 274.594 66.4962 272.919C66.4962 272.147 67.1784 273.11 74.0758 273.11C73.6884 273.5 73.6884 274.278 73.6884 276.027C73.6884 277.59 72.9922 278.904 74.2723 279.331C74.9321 279.331 75.4374 278.929 75.4374 278.553C75.4374 275.861 76.316 273.989 75.4374 273.11C78.2727 272.885 81.0715 272.363 83.7974 271.557C83.7974 275.176 82.7475 276.279 84.1848 277.001C84.8473 277.001 85.3526 276.596 85.3526 276.22C85.4929 275.097 86.0039 271.625 85.5463 271.167C90.3663 269.561 91.9609 267.347 91.9609 268.25C91.9609 270.777 91.377 271.361 92.5448 271.945C93.2045 271.945 93.7098 271.543 93.7098 271.167C93.7098 271.052 93.9568 266.785 94.1 266.502C96.5451 266.504 107.954 251.488 101.104 236.374ZM29.9598 242.982C25.3559 228.604 35.2515 211.493 58.1447 211.493C80.8245 211.493 107.19 233.207 99.9391 253.675C89.833 282.18 41.5482 271.987 29.9598 242.982Z" fill="white"/>
<path d="M385.373 139.981C377.597 124.822 364.838 145.365 361.464 152.614C360.656 154.349 359.131 159.612 356.605 160C354.659 160.193 352.329 157.473 350.968 156.305C348.066 153.738 344.492 152.052 340.665 151.446C334.444 150.668 331.334 156.695 325.697 156.889C314.139 157.288 307.73 145.82 275.166 156.695C274.506 155.157 275.568 156.558 266.262 143.221C272.791 132.814 266.295 127.475 264.987 117.021C264.016 108.467 270.43 100.303 269.262 91.1657C268.095 82.6148 261.076 78.9345 258.755 71.9163C255.872 62.7226 260.675 53.5316 252.402 46.8194C268.948 31.0679 277.418 28.679 277.418 25.0688C277.418 21.672 263.227 27.1013 263.227 25.8464C264.004 22.736 272.752 18.2668 275.278 16.1249C275.666 15.7375 279.554 12.6271 278.195 11.8495C274.425 9.69628 259.533 21.5233 259.533 20.2067C258.839 18.4718 275.674 6.27143 272.165 4.26986C266.655 1.26329 251.627 19.0781 250.782 18.6542C253.045 14.6932 263.522 1.99598 261.279 1.15942C254.541 -1.36711 240.696 23.1234 240.092 23.1234C240.092 22.8427 244.982 7.06027 241.647 7.57119C238.537 7.9614 236.204 14.5725 234.843 22.1521C233.186 28.9485 233.383 36.0648 235.427 42.7573C223.372 45.8678 227.067 61.0298 223.372 70.945C222.985 72.0483 223.653 71.1724 210.843 90.6435C190.895 121.043 137.866 119.595 134.028 77.3877C129.363 47.2574 152.691 32.873 168.047 34.4366C162.226 32.5472 156.014 32.1988 150.018 33.4254C144.022 34.6519 138.446 37.4116 133.835 41.4351C109.535 61.8467 110.349 87.3001 120.812 106.942C122.414 110.053 124.269 113.027 126.359 115.833C118.375 111.501 106.857 111.903 99.429 108.11C95.1508 105.971 93.7921 99.7503 89.3229 97.03C83.102 93.3357 76.1035 95.2811 69.4953 94.5035C65.9974 93.5322 62.6905 91.3959 59.3891 91.5896C51.7141 92.2886 54.6589 95.8847 52.1969 91.7833C51.5934 92.3896 38.7221 75.8184 27.5099 73.5108C20.9016 72.1521 27.1197 79.1478 28.6749 80.8967C29.0651 81.2869 33.728 85.175 33.728 85.3687C31.8471 84.855 11.7191 75.8661 7.67947 81.6771C5.76211 84.4142 23.2317 88.0496 23.2317 89.2567C23.0352 89.8406 16.6206 88.6728 16.2332 88.6728C13.9003 88.6728 3.98512 88.0889 3.01381 91.1994C1.94705 94.933 19.7226 95.2474 20.3149 97.03C20.3149 97.6111 15.2619 97.4174 14.8717 97.6111C11.9549 98.3916 4.17882 99.5566 3.01381 102.861C1.93302 105.747 13.6112 105.749 16.6206 105.584C17.2045 105.584 19.9247 105.194 20.1212 105.777C20.5311 106.6 8.71815 109.536 9.42839 113.554C9.87474 116.08 15.843 114.912 17.3982 114.525C29.7024 112.515 40.1819 115.395 45.5859 114.719C46.4982 125.667 54.1676 124.923 58.0248 129.297C61.3318 133.185 61.9129 139.212 64.8296 143.487C72.0218 153.984 83.4922 149.321 92.6214 154.764C98.9322 158.548 101.369 177.424 127.224 171.091C127.572 176.321 141.24 196.674 169.26 188.496C170.823 194.703 174.647 206.081 175.236 207.26C181.19 221.459 187.678 221.136 187.678 222.615C173.552 224.457 166.537 232.491 165.324 238.555C158.519 239.139 150.165 239.917 143.357 237.39C141.187 247.134 116.607 314.076 112.601 324.808C100.131 304.149 80.2779 306.693 71.2386 316.105C68.3218 319.216 65.9918 324.463 61.9072 326.021C56.6605 327.963 48.1068 324.075 42.4698 324.463C4.06653 327.127 -12.0948 375.886 16.0311 394.644C19.5317 396.977 28.863 398.92 30.8056 403.004C32.7511 407.28 27.3078 416.414 26.3365 420.69C17.5891 456.303 43.2811 477.958 64.0464 471.619C67.7407 470.451 77.2657 461.513 80.7636 463.649C85.0419 466.176 87.9558 472.009 91.0662 475.701C107.719 494.605 127.114 499.52 144.123 480.95C147.234 477.646 149.954 472.59 154.229 470.648C159.673 468.121 166.668 469.286 172.308 469.093C184.553 468.509 197.383 464.233 201.661 451.598C204.272 443.468 203.716 434.65 200.106 426.911C198.744 423.8 193.301 418.357 194.272 414.859C195.05 411.359 199.522 408.248 201.464 405.528C223.532 374.496 188.767 348.047 165.697 371.122C164.338 372.481 162.587 377.34 162.587 375.591C162.55 369.259 160.057 363.187 155.634 358.656C151.21 354.124 145.201 351.485 138.871 351.294C135.699 351.294 136.344 351.76 136.344 349.736C136.344 330.765 145.027 304.259 154.311 278.295C156.902 283.348 160.658 289.684 162.401 293.173C166.096 300.365 172.12 315.912 180.674 318.834C184.562 320.193 185.34 314.362 185.533 311.833C186.235 298.877 180.003 285.801 183.784 284.426C187.566 283.05 193.424 289.99 203.806 287.342C214.187 284.695 214.886 272.958 223.049 268.292C226.937 265.96 231.993 266.737 236.075 266.931C261.124 267.86 269.7 250.688 279.944 231.068C285.559 228.73 291.117 221.908 297.891 220.474C306.832 218.722 315.773 220.861 324.52 217.75C331.713 215.224 337.546 207.644 345.129 206.864C351.543 206.089 357.958 213.669 363.788 210.946C369.425 208.419 372.342 200.449 374.869 195.396C381.485 179.83 393.733 156.505 385.373 139.981Z" fill="white"/>
<path d="M163.771 146.788C161.438 140.954 152.884 130.07 144.914 126.376L145.692 126.182C154.633 122.875 169.601 135.901 173.296 142.316C183.014 159.224 169.214 160.007 163.771 146.788Z" fill="white"/>
<path d="M244.587 124.04C217.76 131.039 202.015 142.099 195.578 152.399C191.316 159.223 223.178 186.431 225.514 185.05C228.442 183.321 257.2 155.697 271.974 152.205C272.867 151.762 263.858 138.197 244.587 124.04Z" fill="#FCCAC2"/>
<path d="M215.489 81.8398C215.293 82.2497 211.405 88.7148 211.323 88.8327C211.416 90.7866 211.61 92.7348 211.907 94.6662C211.907 95.4915 234.326 104.674 241.063 121.091C243.281 122.683 248.997 126.902 248.997 126.902C241.754 98.7816 215.489 82.988 215.489 81.8398Z" fill="#FF7449"/>
<path d="M172.777 201.967C180.918 184.307 182.456 159.423 172.642 142.678C168.948 136.264 154.173 123.241 145.038 126.545L144.261 126.739C152.231 130.433 160.782 141.319 163.117 147.15C168.558 160.367 167.199 176.696 162.921 190.497C160.866 189.986 144.516 194.576 132.013 180.585C130.865 179.434 131.701 179.414 129.876 180.194C128.709 188.576 128.709 197.078 129.876 205.46C133.088 232.227 132.069 241.71 164.866 238.894C166.767 229.391 177.715 224.257 187.29 222.752C178.262 218.612 172.906 205.12 172.777 201.967Z" fill="#FF7449"/>
<path d="M244.595 143.946L240.707 156.582L227.878 158.721L246.928 163.387L244.595 143.946Z" fill="white"/>
<path d="M221.597 136.066L224.708 152.587L235.204 150.838L238.508 140.926L221.597 136.066Z" fill="white"/>
<path d="M120.545 248.428C126.376 244.93 130.848 238.709 137.65 237.154L139.205 235.989C134.059 233.415 132.594 225.116 131.819 219.465C131.232 215.19 130.458 210.524 130.07 205.662C126.216 205.662 123.19 210.26 120.155 214.216C103.258 236.253 108.974 255.37 120.545 248.428Z" fill="white"/>
<path d="M246.06 34.4262C248.446 31.8436 251.037 29.4546 253.805 27.2818C254.098 27.0535 254.468 26.9502 254.836 26.9944C255.205 27.0386 255.54 27.2267 255.77 27.5176C257.199 29.3311 254.485 29.4377 248.118 36.3352C247.863 36.6005 247.514 36.755 247.146 36.7656C246.778 36.7761 246.421 36.6418 246.151 36.3916C245.881 36.1413 245.721 35.7951 245.704 35.4275C245.687 35.0599 245.815 34.7004 246.06 34.4262Z" fill="#501200"/>
<path d="M29.6526 101.356C31.144 99.7998 33.1683 98.8649 35.3199 98.7384C37.4715 98.6119 39.5914 99.3031 41.255 100.674C41.5106 100.938 41.6521 101.293 41.6489 101.661C41.6457 102.029 41.4981 102.381 41.2379 102.641C40.9776 102.901 40.6256 103.049 40.2575 103.052C39.8895 103.055 39.535 102.914 39.2702 102.658C38.1733 101.842 36.822 101.443 35.4577 101.531C34.0934 101.62 32.805 102.19 31.8226 103.141C31.7053 103.284 31.5612 103.402 31.3984 103.488C31.2355 103.575 31.0572 103.629 30.8735 103.647C30.6899 103.665 30.5045 103.646 30.328 103.592C30.1515 103.539 29.9873 103.451 29.8449 103.333C29.7024 103.216 29.5844 103.072 29.4976 102.909C29.4108 102.746 29.357 102.568 29.3391 102.384C29.3213 102.201 29.3397 102.015 29.3935 101.839C29.4473 101.662 29.5353 101.498 29.6526 101.356Z" fill="#501200"/>
<path d="M88.666 143.89C88.4198 143.89 88.1779 143.826 87.9645 143.703C87.7511 143.58 87.5738 143.403 87.4504 143.19C87.3269 142.977 87.2617 142.735 87.2612 142.489C87.2608 142.243 87.3251 142.001 87.4477 141.787C87.8014 140.19 86.0974 123.821 94.9683 113.019C95.2047 112.734 95.5437 112.555 95.9116 112.519C96.2795 112.484 96.6467 112.594 96.9334 112.828C99.415 114.866 93.0482 114.852 90.4318 133.161C90.0023 135.923 91.4592 143.89 88.666 143.89Z" fill="#501200"/>
<path d="M124.298 157.454C125.278 153.377 126.263 143.749 132.077 136.368C132.31 136.083 132.645 135.9 133.011 135.859C133.377 135.819 133.744 135.923 134.033 136.151C134.323 136.378 134.511 136.711 134.558 137.076C134.605 137.441 134.506 137.81 134.284 138.103C128.422 145.562 126.21 161.889 126.423 162.406C127.678 164.576 121.881 167.523 124.298 157.454Z" fill="#501200"/>
<path d="M250.785 76.6292C249.176 76.6292 247.938 72.8198 234.387 70.529C234.065 70.4819 233.746 70.4182 233.43 70.3381C232.027 69.8693 231.881 67.2502 234.856 67.7611C240.106 68.6482 254.633 72.8141 251.865 76.1239C251.733 76.2823 251.568 76.4098 251.381 76.4971C251.195 76.5844 250.991 76.6295 250.785 76.6292Z" fill="#501200"/>
<path d="M257.988 112.981C255.296 112.981 261.312 112.821 244.696 107.069C244.36 106.935 244.089 106.676 243.939 106.347C243.789 106.017 243.772 105.643 243.891 105.301C244.011 104.96 244.258 104.678 244.58 104.514C244.903 104.35 245.276 104.317 245.622 104.421C249.401 105.724 261.747 109.609 259.016 112.534C258.884 112.675 258.725 112.788 258.548 112.864C258.372 112.941 258.181 112.981 257.988 112.981Z" fill="#501200"/>
<path d="M115.829 251.324C106.402 251.324 103.539 233.358 118.841 213.174C121.368 209.847 126.34 202.88 130.124 204.137C130.464 204.265 130.741 204.52 130.897 204.847C131.053 205.175 131.076 205.551 130.961 205.895C130.846 206.239 130.603 206.526 130.281 206.694C129.96 206.863 129.585 206.9 129.237 206.799C128.142 206.417 125.335 209.252 121.07 214.883C105.316 235.688 109.867 253.203 119.821 247.226C125.629 243.742 130.079 237.65 137.302 235.795C137.663 235.702 138.045 235.756 138.366 235.946C138.687 236.136 138.919 236.445 139.012 236.805C139.104 237.166 139.05 237.549 138.86 237.869C138.671 238.19 138.362 238.422 138.001 238.515C129.52 240.693 123.367 251.324 115.829 251.324Z" fill="#501200"/>
<path d="M118.591 344.544C124.624 317.12 131.179 299.535 141.397 273.38C143.183 266.255 145.858 268.114 145.858 269.616C145.858 272.027 130.935 301.503 121.334 345.145C121.252 345.507 121.032 345.823 120.719 346.024C120.406 346.225 120.027 346.294 119.663 346.217C119.3 346.135 118.983 345.915 118.779 345.602C118.58 345.288 118.512 344.908 118.591 344.544Z" fill="#501200"/>
<path d="M195.005 415.13C195.673 412.118 199.816 408.954 201.961 406.124C223.487 377.628 194.283 351.731 172.367 363.822C168.686 365.622 165.472 368.251 162.979 371.503C162.02 365.346 158.866 359.744 154.098 355.733C149.331 351.721 143.273 349.569 137.043 349.676C137.287 346.616 136.153 336.201 147.461 301.391C147.365 301.672 154.628 279.298 154.726 279.012C154.784 278.837 154.808 278.652 154.795 278.468C154.782 278.284 154.733 278.105 154.65 277.94C154.568 277.775 154.454 277.627 154.315 277.507C154.176 277.386 154.014 277.293 153.839 277.235C153.664 277.176 153.479 277.153 153.295 277.166C153.111 277.179 152.932 277.228 152.767 277.31C152.602 277.393 152.454 277.507 152.334 277.646C152.213 277.785 152.12 277.947 152.062 278.122C142.601 306.941 134.413 329.124 134.295 349.839C124.933 350.712 118.409 355.33 114.133 371.314C114.072 371.579 114.089 371.855 114.182 372.109C114.275 372.364 114.44 372.586 114.656 372.749C114.873 372.912 115.132 373.008 115.403 373.027C115.673 373.045 115.943 372.985 116.18 372.853C116.497 372.678 116.734 372.387 116.842 372.042C121.334 355.249 128.001 352.478 138.231 352.478C151.363 352.478 160.371 364.327 160.543 375.371C160.497 375.752 160.59 376.137 160.804 376.456C161.018 376.774 161.34 377.005 161.71 377.106C163.774 377.622 164.636 373.577 166.05 371.893C187.981 349.954 221.241 375.975 199.721 404.44C197.657 407.169 193.146 410.552 192.259 414.546C191.319 419.013 196.826 424.372 198.196 427.49C201.643 434.902 202.176 443.338 199.69 451.125C195.367 463.898 182.027 467.171 171.617 467.668C166.132 467.867 158.597 466.655 153.008 469.352C148.328 471.48 145.507 476.73 142.458 479.972C125.665 497.781 107.733 493.222 91.4841 474.781C88.4523 471.18 85.398 465.127 80.8418 462.43C76.2323 459.622 66.682 469.201 62.982 470.256C42.5396 476.076 18.7902 454.6 27.0492 420.992C28.0317 416.865 33.9185 407.438 31.6166 402.374C29.3343 397.588 20.0563 395.987 16.3535 393.452C-10.147 375.784 4.13914 328.852 42.1073 325.845C47.5758 325.478 56.1688 329.453 61.9518 327.314C66.5473 325.562 68.9334 320.107 71.794 317.059C81.6924 306.736 99.715 306.523 110.675 325.149L101.54 349.808C101.46 350.02 101.434 350.249 101.462 350.473C101.49 350.698 101.572 350.913 101.701 351.099C101.83 351.285 102.002 351.437 102.203 351.543C102.404 351.648 102.627 351.703 102.854 351.703C104.19 351.703 103.844 351.891 113.695 325.52C133.688 271.991 144.109 239.78 144.109 239.497C144.109 238.211 142.06 236.69 140.625 240.53C139.196 244.101 141.45 241.653 111.876 321.89C100.004 303.533 80.8418 303.57 69.7672 315.127C66.8224 318.269 64.5288 323.33 60.9748 324.672C56.2502 326.421 47.7555 322.628 41.9108 323.035C1.48628 326.238 -14.007 376.57 14.7927 395.766C18.4842 398.292 27.4927 400.212 29.0816 403.547C30.6677 407.04 25.2609 416.399 24.3317 420.321C15.3008 457.045 42.1101 479.099 63.7512 472.943C67.3277 471.927 77.0548 463.398 79.3989 464.824C83.3515 467.16 86.2065 472.85 89.3618 476.595C97.2867 485.578 107.999 494 119.989 494C139.797 494 148.154 474.63 154.201 471.876C159.097 469.521 166.115 470.658 171.735 470.472C187.708 469.712 198.581 463.159 202.362 451.989C205.067 443.536 204.493 434.375 200.754 426.325C199.395 423.218 194.401 417.994 195.005 415.13Z" fill="#501200"/>
<path d="M103.401 441.223C100.681 435.858 99.9146 434.611 90.7517 434.651C86.0285 435.195 81.2758 433.913 77.4678 431.066C72.1649 426.487 66.1152 412.538 73.007 406.924C73.2958 406.693 73.6638 406.584 74.0316 406.623C74.3994 406.661 74.7373 406.843 74.9721 407.128C76.5919 409.119 72.7853 408.717 72.701 414.074C73.0478 419.647 75.3791 424.912 79.2728 428.916C82.8128 431.849 86.6503 431.832 90.7377 431.835C101.287 431.815 102.809 433.851 105.897 439.945C107.935 443.96 110.495 447.553 116.062 447.034C122.103 446.472 128.667 440.591 132.453 435.726C132.686 435.443 133.02 435.261 133.384 435.219C133.748 435.178 134.114 435.28 134.405 435.504C134.694 435.73 134.884 436.059 134.933 436.423C134.983 436.787 134.887 437.155 134.668 437.45C124.764 450.203 110.804 455.82 103.401 441.223Z" fill="#501200"/>
<path d="M306.339 202.971C306.08 194.081 307.009 185.196 309.101 176.551C309.168 176.282 309.313 176.039 309.518 175.852C309.724 175.666 309.98 175.544 310.255 175.504C310.529 175.464 310.81 175.506 311.06 175.626C311.311 175.745 311.52 175.936 311.661 176.175C311.852 176.493 311.911 176.873 311.824 177.234C306.892 196.96 311.167 204.268 307.773 204.343C307.495 204.351 307.221 204.275 306.986 204.126C306.751 203.976 306.567 203.759 306.456 203.504C306.383 203.336 306.343 203.154 306.339 202.971Z" fill="#501200"/>
<path d="M218.125 256.441C209.476 256.441 197.89 244.65 192.365 236.748C191.599 235.656 190.939 234.713 192.04 233.89C194.103 232.34 194.482 236.417 200.843 242.769C205.414 247.514 211.045 252.499 218.344 253.65C218.694 253.703 219.011 253.887 219.23 254.165C219.45 254.443 219.555 254.794 219.526 255.147C219.499 255.5 219.34 255.829 219.08 256.07C218.82 256.31 218.479 256.442 218.125 256.441Z" fill="#501200"/>
<path d="M220.22 136.324C220.176 136.089 220.192 135.846 220.268 135.619C220.344 135.392 220.477 135.188 220.654 135.027C220.831 134.866 221.046 134.753 221.279 134.698C221.512 134.644 221.756 134.649 221.986 134.715C240.292 140.007 239.357 139.521 239.753 140.271C240.149 141.02 240.084 140.65 236.536 151.281C236.174 152.367 236.362 152.067 224.939 153.973C223.024 154.29 223.389 153.131 220.22 136.324ZM223.398 138.042L225.834 150.978L234.141 149.594L236.715 141.868L223.398 138.042Z" fill="#501200"/>
<path d="M246.927 164.791C246.646 164.791 248.33 165.17 227.54 160.083C227.227 160.005 226.951 159.821 226.758 159.563C226.565 159.305 226.466 158.989 226.478 158.667C226.491 158.345 226.614 158.037 226.827 157.795C227.039 157.553 227.329 157.391 227.647 157.337L239.62 155.341L243.252 143.534C243.347 143.227 243.545 142.962 243.812 142.783C244.079 142.604 244.399 142.523 244.719 142.552C245.039 142.581 245.34 142.718 245.57 142.942C245.801 143.166 245.948 143.462 245.986 143.781C248.204 162.191 249.173 164.791 246.927 164.791ZM234.856 158.982L245.301 161.54L243.999 150.687C241.324 159.347 243.44 157.54 234.844 158.982H234.856Z" fill="#501200"/>
<path d="M386.357 139.123C384.613 135.723 382.101 132.902 378.297 132.922C370.877 132.961 361.872 146.579 359.525 152.853C354.719 165.716 355.21 152.031 340.531 149.833C333.633 149.201 330.537 155.093 325.372 155.27C316.141 155.596 304.859 145.125 277.435 154.013C274.347 155.015 276.343 153.272 268.603 143.881C269.836 140.895 270.458 137.693 270.433 134.462C270.408 131.232 269.736 128.039 268.457 125.073C265.499 116.12 265.597 114.088 268.424 105.324C272.183 93.6679 272.028 88.5053 264.704 79.2161C260.373 73.7251 259.09 71.5663 259.053 61.7241C259.031 56.5054 259.008 51.1407 254.421 46.7333C267.132 33.7722 278.614 30.4513 278.614 25.4796C278.614 17.5266 255.85 30.7264 272.157 20.2413C275.655 17.9955 282.106 13.1052 278.493 11.0447C273.676 8.29358 261.383 19.7781 268.519 12.8217C270.917 10.4889 276.379 5.57896 272.663 3.46229C269.426 1.61231 264.412 4.92768 259.421 9.18909C261.299 6.42675 264.732 1.35685 261.734 0.245172C255.976 -1.89115 247.417 10.4917 243.58 15.7412C244.248 12.1395 245 6.03654 241.381 6.60361C233.743 8.03812 230.573 34.3954 233.597 42.2052C225.756 45.0125 224.785 52.9795 223.847 60.7051C222.522 71.5776 221.7 71.906 218.048 76.3499C215.892 78.7614 214.051 81.4366 212.568 84.3113C207.972 47.2892 161.883 14.3629 132.842 39.7629C108.623 60.9521 107.04 90.1813 123.016 112.603C115.49 109.515 106.06 109.13 99.7722 106.062C96.0526 104.203 94.4917 97.9209 89.7503 95.0294C83.1027 91.0852 75.961 93.0868 69.2882 92.3092C66.1749 92.1267 62.9326 89.8977 59.1652 90.1756C51.7232 90.7371 56.4506 94.5156 48.711 86.8631C28.3584 66.7659 16.231 69.3149 27.0362 81.664C19.4959 79.0673 9.48802 76.3808 6.24002 81.0492C4.22722 83.9435 10.0663 86.2736 13.4069 87.4105C7.94122 87.3572 2.4025 87.7614 1.40593 90.9757C0.207229 94.8104 8.72445 96.186 12.7613 96.7727C9.02202 97.6149 2.50637 98.9006 1.44242 102.53C-0.219474 106.96 9.72944 107.28 14.4877 107.218C4.87289 111.617 7.39381 116.699 13.0111 116.699C18.9878 116.699 17.587 114.273 37.8357 115.997C47.7229 116.839 42.0129 114.823 46.2715 122.619C49.0788 127.156 54.0111 127.521 56.7005 130.564C59.7548 134.16 60.3976 140.209 63.4154 144.639C71.0399 155.767 82.8753 151.284 91.648 156.323C97.4983 159.835 100.289 178.663 125.843 173.15C127.435 179.095 138.577 192.18 156.069 192.18C158.301 192.172 160.53 192.012 162.739 191.694C163.1 191.635 163.424 191.436 163.641 191.141C163.858 190.846 163.951 190.477 163.9 190.114C163.849 189.752 163.659 189.423 163.369 189.199C163.079 188.975 162.713 188.873 162.349 188.915C140.171 192.026 128.69 176.125 128.381 171.356C128.1 167.125 110.614 179.014 99.0563 160.742C87.2996 142.138 71.1747 159.596 62.8708 136.748C56.8773 120.236 48.1552 128.585 46.7319 114.739C45.8279 105.907 50.2017 93.6173 59.4151 92.9576C62.3262 92.7471 65.7707 94.8974 69.0805 95.0883C75.7954 95.88 82.5553 93.9823 88.3439 97.4184C92.5042 99.9449 93.8264 106.194 98.5679 108.563C106.824 112.592 116.012 111.564 127.289 117.878C131.219 122.302 138.383 127.947 143.894 127.947C144.261 127.961 144.619 127.83 144.891 127.582C145.163 127.335 145.327 126.991 145.349 126.625C145.37 126.258 145.247 125.897 145.007 125.62C144.766 125.342 144.426 125.17 144.059 125.14C134.944 124.037 126.326 113.787 122.008 105.68C101.878 67.9253 131.031 33.6824 157.012 33.5813C137.578 39.3727 125.397 59.8769 135.377 89.7461C146.367 117.092 187.555 121.14 210.008 93.5864C209.296 101.863 205.394 109.539 199.127 114.992C198.849 115.237 198.679 115.583 198.655 115.953C198.631 116.323 198.755 116.688 198.999 116.968C199.243 117.247 199.588 117.418 199.958 117.444C200.328 117.47 200.693 117.348 200.974 117.106C204.569 114.021 207.486 110.224 209.539 105.954C211.592 101.685 212.737 97.0354 212.902 92.3007C216.697 78.3094 222.079 78.2644 224.499 71.8302C228.269 61.7072 224.847 47.3313 235.509 44.5296C237.852 43.8987 240.298 43.7476 242.701 44.0853C245.103 44.423 247.413 45.2425 249.492 46.4947C262.472 54.1024 250.134 65.2191 262.509 80.9285C268.379 88.379 269.707 92.2165 265.762 104.448C259.219 124.736 271.711 128.029 266.47 141.366C259.276 133.03 250.884 125.808 241.57 119.935C240.146 118.897 239.113 117.953 238.131 118.936C234.65 122.428 256.066 127.041 273.221 155.652C252.841 164.433 239.004 182.242 245.146 182.242C247.159 182.242 245.738 180.297 248.596 177.372C262.071 159.866 289.582 147.91 314.485 155.888C323.544 158.788 326.61 159.153 332.946 155.172C334.999 153.521 337.556 152.624 340.191 152.631C352.22 154.437 356.106 170.211 362.158 153.841C364.028 148.788 372.357 135.74 378.37 135.74C380.422 135.74 382.269 137.312 383.864 140.42C391.609 155.385 381.02 176.942 374.038 191.212C370.389 198.651 367.517 206.545 362.38 208.67C359.66 209.9 356.597 208.454 353.354 206.924C346.221 203.555 343.083 202.539 331.699 210.517C324.4 215.629 321.787 217.103 308.444 217.255C284.515 217.504 290.253 225.137 274.195 230.558C255.173 235.109 248.04 225.334 246.42 228.804C246.264 229.142 246.247 229.528 246.375 229.878C246.503 230.228 246.765 230.513 247.103 230.67C256.347 234.899 266.813 235.621 276.551 232.703C270.094 245.636 263.963 258.392 250.005 263.046C230.585 269.52 225.377 256.798 213.152 275.592C210.384 279.851 207.767 283.874 202.484 285.373C192.277 287.697 187.016 280.788 182.297 282.506C176.907 284.471 183.85 298.075 183.139 311.126C182.96 313.465 182.345 317.678 180.133 316.904C172.236 314.212 166.234 299.092 162.663 291.947C158.023 282.666 142.353 256.812 157.694 254.504C159.036 254.341 162.382 254.984 163.786 252.455C166.15 248.373 165.134 243.191 166.088 238.809C167.814 230.207 177.69 225.233 187.027 223.989C201.521 222.055 203.722 225.182 204.014 222.555C204.034 222.371 204.018 222.186 203.967 222.009C203.916 221.832 203.83 221.667 203.715 221.523C203.599 221.379 203.457 221.259 203.295 221.17C203.134 221.081 202.956 221.025 202.773 221.005C197.618 220.49 192.423 220.535 187.277 221.14C178.99 217.12 173.707 203.148 174.207 201.655C175.077 199.035 168.076 197.688 173.331 208.167C175.307 213.536 178.689 218.275 183.122 221.889C170.801 224.739 164.561 232.125 163.34 238.236C162.366 242.728 163.261 247.761 161.347 251.071C161.018 251.663 159.943 251.66 158.82 251.66C156.455 251.457 154.101 252.156 152.23 253.617C150.359 255.078 149.111 257.193 148.736 259.537C147.448 269.194 153.144 279.901 157.72 288.511C162.601 297.725 171.164 319.84 180.784 319.84C192.078 319.84 181.087 285.942 183.277 285.145C186.281 284.039 192.181 290.597 203.208 288.093C209.581 286.288 212.61 281.636 215.541 277.125C226.146 260.809 230.936 271.864 250.895 265.719C267.113 260.312 273.311 245.015 280.734 230.884C286.747 227.712 291.311 222.108 297.372 220.862C306.403 219.093 315.089 221.325 324.201 218.085C331.419 215.559 337.508 208.167 344.514 207.269C350.199 206.576 356.805 214.287 363.539 211.255C369.687 208.709 372.643 200.481 375.344 195.021C383.535 178.335 394.952 155.728 386.357 139.123ZM43.818 113.647C34.5849 113.046 26.8565 111.738 17.1799 113.324C9.52732 115.233 8.17703 113.044 17.0957 109.13C19.0608 108.268 22.7102 107.143 21.4104 105.164C20.703 104.1 19.1646 104.139 17.0676 104.321C12.736 104.714 8.36512 104.361 4.15423 103.277C5.12835 101.062 12.576 99.7456 15.0043 99.1364C17.2052 98.8557 21.461 99.6136 21.461 97.2078C21.461 93.5584 7.47522 94.4567 4.21318 91.5933C4.66235 91.0599 6.6162 90.097 14.9341 90.2318C18.3028 90.2879 24.3777 92.3849 24.3777 89.4289C24.3777 86.7452 12.4384 85.0805 8.9378 82.2592C10.3105 81.0605 14.4372 80.2071 26.6235 84.4629C27.7857 85.044 33.1756 87.5368 34.3238 86.6581C37.2911 84.3899 27.4404 80.5636 25.7308 74.9126C33.9308 74.6655 49.3679 91.6972 51.4733 93.3703C48.836 96.0165 46.79 99.1921 45.4703 102.687C44.1507 106.183 43.5875 109.918 43.818 113.647ZM251.897 44.7009C249.655 43.1594 247.125 42.0842 244.459 41.5393C241.792 40.9944 239.044 40.9908 236.376 41.5287C233.311 35.072 236.811 12.5241 241.334 9.58211C241.282 12.9174 240.791 16.2314 239.874 19.4384C239.47 21.5691 237.364 24.9238 240.096 24.9238C241.982 24.9238 243.361 20.8111 246.227 16.8726C254.087 6.09549 257.998 3.09173 259.946 2.80258C257.102 9.71405 246.524 18.5709 249.963 20.303C251.111 20.8813 251.858 20.1374 254.62 17.3358C266.464 5.34596 274.03 3.29947 269.549 7.83319C269.488 7.90337 260.959 16.2128 259.073 18.3997C256.762 21.075 258.379 22.7397 260.681 21.5579C268.261 17.6838 275.358 11.7886 276.248 13.3691C277.191 15.0535 258.509 23.4219 262.006 27.2847C264.421 29.9488 286.317 19.3514 269.434 30.9481C263.205 35.0204 257.337 39.6217 251.897 44.7009Z" fill="#501200"/>
<path d="M174.972 54.0372H181.193V47.6226H174.972V41.208H168.558V47.6226H174.972V54.0372Z" fill="white"/>
<path d="M168.558 47.624H162.143V54.0386H168.558V47.624Z" fill="white"/>
<path d="M381.999 484.611C445.662 484.611 497.27 433.003 497.27 369.34C497.27 305.677 445.662 254.068 381.999 254.068C318.336 254.068 266.727 305.677 266.727 369.34C266.727 433.003 318.336 484.611 381.999 484.611Z" fill="#1166B5"/>
<path d="M310.596 316.856C296.172 310.744 280.657 344.013 295.378 350.877C310.683 357 324.734 322.847 310.596 316.856ZM312.547 325.926C313.701 334.292 307.693 344.9 301.178 347.188C295.372 349.765 289.949 342.186 295.283 330.044C300.72 318.492 311.099 315.438 312.547 325.926Z" fill="white"/>
<path d="M463.684 329.488C461.157 317.913 442.851 305.755 434.859 314.121C429.379 319.595 434.017 329.903 440.12 335.737C451.483 346.603 466.985 344.574 463.684 329.488ZM437.262 316.625C440.805 312.49 449.535 316.588 453.929 320.774C458.111 324.704 462.996 333.606 459.156 337.446C456.132 341.48 447.52 337.918 442.45 333.157C438.177 329.089 433.539 321.083 437.262 316.625Z" fill="white"/>
<path d="M377.65 419.879C370.011 416.752 358.684 416.319 355.753 423.641C352.067 432.551 365.031 444.243 378.304 444.243C395.403 444.243 393.477 426.35 377.65 419.879ZM376.404 422.787C381.866 425.246 389.137 431.209 386.675 436.638C384.331 441.787 375.118 440.793 369.7 438.353C352.48 430.793 356.857 415.469 376.404 422.787Z" fill="white"/>
<path d="M315.04 364.386C312.968 361.427 310.781 357.171 308.134 353.381C306.759 352.011 303.553 353.101 305.664 356.368C312.727 367.342 311.997 367.266 313.378 367.266C313.712 367.259 314.039 367.166 314.327 366.996C314.615 366.826 314.854 366.584 315.022 366.295C315.189 366.005 315.278 365.677 315.281 365.343C315.285 365.008 315.202 364.679 315.04 364.386Z" fill="white"/>
<path d="M331.964 347.562C319.27 341.74 319.099 341.105 317.681 342.655C314.874 345.743 326.878 349.903 330.656 350.908C332.503 351.416 334.317 348.401 331.964 347.562Z" fill="white"/>
<path d="M340.217 327.099L325.866 326.703C322.924 326.513 319.822 332.815 340.203 330.914C342.412 330.914 342.295 327.099 340.217 327.099Z" fill="white"/>
<path d="M427.826 333.9C415.25 334.82 414.015 334.225 414.015 336.491C414.015 338.655 415.926 338.318 419.523 338.304C420.645 338.304 425.3 337.934 427.88 337.526C429.96 337.526 430.238 333.723 427.826 333.9Z" fill="white"/>
<path d="M441.097 341.898C431.319 351.047 430.272 350.949 431.201 352.805C431.367 353.06 431.594 353.271 431.861 353.418C432.127 353.564 432.426 353.643 432.731 353.647C434.665 353.647 441.768 346.57 443.632 344.456C443.932 344.112 444.091 343.667 444.077 343.211C444.062 342.755 443.876 342.321 443.555 341.997C443.233 341.673 442.801 341.483 442.345 341.464C441.889 341.446 441.443 341.601 441.097 341.898Z" fill="white"/>
<path d="M452.892 348.481C449.102 347.509 449.192 358.842 449.773 363.118C449.767 363.358 449.809 363.597 449.897 363.82C449.985 364.044 450.118 364.247 450.287 364.417C450.457 364.587 450.66 364.72 450.884 364.809C451.107 364.897 451.347 364.939 451.587 364.931C453.833 364.931 453.341 363.949 454.374 350.095C454.368 349.691 454.213 349.304 453.94 349.006C453.667 348.709 453.294 348.522 452.892 348.481Z" fill="white"/>
<path d="M359.676 443.602C358.994 443.321 359.757 442.923 345.769 447.265C345.318 447.39 344.933 447.682 344.69 448.081C344.448 448.481 344.367 448.958 344.464 449.415C344.562 449.872 344.83 450.274 345.215 450.54C345.599 450.806 346.07 450.915 346.532 450.845C349.752 450.424 359.637 448.113 360.695 446.215C360.81 445.979 360.876 445.72 360.886 445.457C360.897 445.194 360.853 444.931 360.758 444.686C360.662 444.44 360.516 444.217 360.33 444.031C360.144 443.844 359.921 443.698 359.676 443.602Z" fill="white"/>
<path d="M369.386 446.718C365.203 455.014 364.333 455.688 365.851 457.215C366.032 457.396 366.255 457.528 366.5 457.599C366.745 457.67 367.004 457.678 367.253 457.622C367.502 457.566 367.732 457.448 367.923 457.278C368.114 457.109 368.259 456.894 368.344 456.653C369.88 453.996 371.233 451.238 372.395 448.397C374.343 446.589 370.509 444.49 369.386 446.718Z" fill="white"/>
<path d="M443.233 114.495C440.546 119.268 417.723 161.536 423.208 161.536C425.423 161.536 422.585 154.608 444.982 115.66C445.355 114.543 444.392 113.333 443.233 114.495Z" fill="#FF7449"/>
<path d="M474.149 115.271C457.805 131.771 443.332 150.025 430.993 169.701C430.88 169.95 430.864 170.233 430.948 170.494C431.031 170.754 431.208 170.975 431.445 171.113C431.604 171.203 431.782 171.252 431.965 171.256C434.359 171.256 435.797 159.833 475.704 116.826C476.224 115.24 474.862 114.518 474.149 115.271Z" fill="#FF7449"/>
<path d="M354.783 81.6426L344.871 84.9467L340.011 68.0358C339.559 66.6855 337.788 67.6765 338.26 68.6197L343.119 85.5306L333.013 88.8348C332.796 88.8996 332.612 89.0444 332.498 89.2398C332.384 89.4353 332.348 89.6668 332.398 89.8875C332.446 90.1087 332.576 90.3035 332.762 90.4327C332.948 90.5619 333.176 90.6158 333.4 90.5837C333.962 90.5837 332.839 90.9009 343.703 87.2796C346.712 97.7085 346.594 98.1661 347.591 98.1661C349.084 98.1661 348.484 97.3969 345.452 86.8921L355.558 83.588C357.001 83.108 355.707 81.1822 354.783 81.6426Z" fill="#FF7449"/>
</svg>
