<svg width="171" height="171" viewBox="0 0 171 171" fill="none" xmlns="http://www.w3.org/2000/svg">
<path d="M156.597 106.789V64.1351C156.597 28.5901 142.379 14.3721 106.834 14.3721H64.18C28.635 14.3721 14.417 28.5901 14.417 64.1351V106.789C14.417 142.334 28.635 156.552 64.18 156.552H106.834C142.379 156.552 156.597 142.334 156.597 106.789Z" stroke="#FF4949" stroke-width="5.6872" stroke-linecap="round" stroke-linejoin="round"/>
<path d="M68.5877 123.14C76.9109 123.14 83.6588 116.393 83.6588 108.07C83.6588 99.7457 76.9109 92.9985 68.5877 92.9985C60.2641 92.9985 53.5166 99.7457 53.5166 108.07C53.5166 116.393 60.2641 123.14 68.5877 123.14Z" stroke="#FF4949" stroke-width="5.6872" stroke-linecap="round" stroke-linejoin="round"/>
<path d="M83.6592 108.069V55.3916" stroke="#FF4949" stroke-width="5.6872" stroke-linecap="round" stroke-linejoin="round"/>
<path d="M93.5407 48.2824L110.176 53.8271C114.228 55.1778 117.498 59.7276 117.498 63.993V68.4005C117.498 74.1592 113.019 77.3582 107.617 75.5099L90.9815 69.9647C86.9293 68.614 83.6592 64.0643 83.6592 59.7989V55.3914C83.6592 49.7042 88.0668 46.4341 93.5407 48.2824Z" stroke="#FF4949" stroke-width="5.6872" stroke-linecap="round" stroke-linejoin="round"/>
</svg>
