<svg width="30" height="30" viewBox="0 0 30 30" fill="none" xmlns="http://www.w3.org/2000/svg">
<path d="M25.3542 10.966C25.3542 11.1975 25.2684 11.429 25.0844 11.6118L17.0869 19.5558C15.7867 20.8473 13.6524 20.8473 12.3522 19.5558L4.35468 11.6118C3.99896 11.2584 3.99896 10.6736 4.35468 10.3203C4.71039 9.96694 5.29917 9.96694 5.65488 10.3203L13.6524 18.2643C14.2411 18.8491 15.1979 18.8491 15.7867 18.2643L23.7842 10.3203C24.1399 9.96694 24.7287 9.96694 25.0844 10.3203C25.2561 10.503 25.3542 10.7345 25.3542 10.966Z" fill="white"/>
<path d="M25.3542 10.966C25.3542 11.1975 25.2684 11.429 25.0844 11.6118L17.0869 19.5558C15.7867 20.8473 13.6524 20.8473 12.3522 19.5558L4.35468 11.6118C3.99896 11.2584 3.99896 10.6736 4.35468 10.3203C4.71039 9.96694 5.29917 9.96694 5.65488 10.3203L13.6524 18.2643C14.2411 18.8491 15.1979 18.8491 15.7867 18.2643L23.7842 10.3203C24.1399 9.96694 24.7287 9.96694 25.0844 10.3203C25.2561 10.503 25.3542 10.7345 25.3542 10.966Z" stroke="white"/>
</svg>
