<svg width="53" height="45" viewBox="0 0 53 45" fill="none" xmlns="http://www.w3.org/2000/svg">
<path opacity="0.1" d="M8.80928 7.68682L18.7828 4.3623L19.8835 13.2352L24.3087 28.757L31.6091 36.0575L30.9577 37.6299H25.3195C25.3195 37.6299 23.7022 44.2789 17.6597 44.2789C11.7968 44.2789 10.6063 39.7189 10.6063 39.7189L8.33756 39.2023L7.93322 36.5966L3.26094 34.2829L1.03711 27.6339L3.26094 20.9849V14.3358L8.80928 7.68682Z" fill="#3D0A19"/>
<path fill-rule="evenodd" clip-rule="evenodd" d="M12.1973 37.2471C12.1973 37.0712 12.3398 36.9287 12.5156 36.9287H30.3512C30.527 36.9287 30.6695 37.0712 30.6695 37.2471C30.6695 37.4229 30.527 37.5654 30.3512 37.5654H12.5156C12.3398 37.5654 12.1973 37.4229 12.1973 37.2471Z" fill="#3D0A19"/>
<path fill-rule="evenodd" clip-rule="evenodd" d="M7.13449 9.61026C7.27533 9.71553 7.30416 9.91503 7.19889 10.0559L3.93774 14.4188V20.6924C3.93774 20.7331 3.92991 20.7735 3.91468 20.8113L1.39777 27.0595L3.88675 34.4827L7.61538 36.9831C7.76142 37.0811 7.80041 37.2788 7.70249 37.4249C7.60456 37.5709 7.40679 37.6099 7.26075 37.512L3.44206 34.9512C3.38366 34.912 3.33987 34.8546 3.31752 34.788L0.75675 27.1506C0.732666 27.0788 0.734986 27.0007 0.763294 26.9304L3.30101 20.6307V14.3129C3.30101 14.2442 3.32323 14.1773 3.36437 14.1223L6.68888 9.67465C6.79415 9.53382 6.99366 9.50499 7.13449 9.61026Z" fill="#3D0A19"/>
<path fill-rule="evenodd" clip-rule="evenodd" d="M29.3855 2.82253C29.4048 2.9973 29.2787 3.15461 29.104 3.1739L18.9666 4.29282L11.2081 7.13236C11.043 7.19279 10.8602 7.10793 10.7998 6.94281C10.7393 6.7777 10.8242 6.59485 10.9893 6.53442L18.7839 3.68163C18.808 3.67283 18.833 3.66697 18.8584 3.66416L29.0341 2.54101C29.2089 2.52172 29.3662 2.64776 29.3855 2.82253Z" fill="#3D0A19"/>
<path fill-rule="evenodd" clip-rule="evenodd" d="M33.8623 3.40004C33.9095 3.23066 34.085 3.13158 34.2544 3.17874L45.7105 6.36847C45.7633 6.38318 45.8115 6.41128 45.8502 6.45005L50.9493 11.5491C51.0004 11.6002 51.0326 11.6671 51.0406 11.7389L52.321 23.195C52.3278 23.256 52.3168 23.3178 52.2893 23.3727L50.088 27.7754C50.053 27.8455 49.9934 27.9001 49.9206 27.929L44.3723 30.1304C44.3283 30.1478 44.2809 30.1552 44.2337 30.1521L40.7925 29.9227L39.5769 34.764C39.5577 34.8404 39.5109 34.907 39.4454 34.9508L35.6267 37.5116C35.4807 37.6095 35.2829 37.5705 35.185 37.4245C35.0871 37.2785 35.1261 37.0807 35.2721 36.9828L38.9891 34.4902L40.2397 29.5098C40.2772 29.3605 40.4161 29.2594 40.5697 29.2697L44.2043 29.512L49.5728 27.382L51.6777 23.1721L50.4202 11.9205L45.4591 6.95944L34.0836 3.79214C33.9143 3.74498 33.8152 3.56943 33.8623 3.40004Z" fill="#3D0A19"/>
<path fill-rule="evenodd" clip-rule="evenodd" d="M34.4994 17.2167C34.657 17.1387 34.848 17.2032 34.926 17.3607L40.8337 29.2885C40.9118 29.4461 40.8473 29.6371 40.6898 29.7151C40.5322 29.7932 40.3412 29.7287 40.2632 29.5711L34.3554 17.6433C34.2774 17.4858 34.3418 17.2948 34.4994 17.2167Z" fill="#3D0A19"/>
<path fill-rule="evenodd" clip-rule="evenodd" d="M43.1867 21.6482C43.3535 21.7036 43.4438 21.8838 43.3884 22.0507L40.8501 29.6881C40.7946 29.8549 40.6144 29.9452 40.4475 29.8898C40.2807 29.8343 40.1904 29.6541 40.2458 29.4873L42.7841 21.8499C42.8396 21.683 43.0198 21.5927 43.1867 21.6482Z" fill="#3D0A19"/>
<path fill-rule="evenodd" clip-rule="evenodd" d="M46.7607 21.6666C46.9174 21.5868 47.1091 21.649 47.189 21.8057L50.0867 27.4888C50.1666 27.6454 50.1043 27.8371 49.9477 27.917C49.791 27.9969 49.5993 27.9346 49.5194 27.778L46.6217 22.0949C46.5419 21.9382 46.6041 21.7465 46.7607 21.6666Z" fill="#3D0A19"/>
<path fill-rule="evenodd" clip-rule="evenodd" d="M51.0102 11.6331C51.0882 11.7907 51.0238 11.9817 50.8663 12.0598L48.328 13.3177C48.1704 13.3957 47.9794 13.3313 47.9013 13.1738C47.8233 13.0162 47.8877 12.8252 48.0452 12.7472L50.5835 11.4892C50.7411 11.4112 50.9321 11.4756 51.0102 11.6331Z" fill="#3D0A19"/>
<path fill-rule="evenodd" clip-rule="evenodd" d="M35.1309 15.5938C35.1309 15.4179 35.2734 15.2754 35.4492 15.2754H39.2679C39.4438 15.2754 39.5863 15.4179 39.5863 15.5938C39.5863 15.7696 39.4438 15.9121 39.2679 15.9121H35.4492C35.2734 15.9121 35.1309 15.7696 35.1309 15.5938Z" fill="#3D0A19"/>
<path fill-rule="evenodd" clip-rule="evenodd" d="M31.5802 5.08143C31.7536 5.05285 31.9175 5.17033 31.946 5.34382L33.204 12.9812C33.2325 13.1547 33.115 13.3185 32.9416 13.3471C32.7681 13.3757 32.6043 13.2582 32.5757 13.0847L31.3178 5.4473C31.2892 5.27381 31.4067 5.11 31.5802 5.08143Z" fill="#3D0A19"/>
<path fill-rule="evenodd" clip-rule="evenodd" d="M29.9438 4.37997C30.07 4.50244 30.073 4.704 29.9505 4.83016L25.4804 9.43505C25.3579 9.56122 25.1564 9.56421 25.0302 9.44174C24.904 9.31927 24.9011 9.11771 25.0235 8.99155L29.4936 4.38665C29.6161 4.26049 29.8177 4.2575 29.9438 4.37997Z" fill="#3D0A19"/>
<path fill-rule="evenodd" clip-rule="evenodd" d="M18.797 3.67752C18.9644 3.62362 19.1438 3.71561 19.1977 3.88297L20.4781 7.85891C20.5319 8.02627 20.44 8.20564 20.2726 8.25954C20.1052 8.31343 19.9259 8.22145 19.872 8.05409L18.5916 4.07815C18.5377 3.91079 18.6297 3.73142 18.797 3.67752Z" fill="#3D0A19"/>
<path fill-rule="evenodd" clip-rule="evenodd" d="M45.8921 6.50257C45.9878 6.65009 45.9458 6.84724 45.7983 6.94292L34.9936 13.9514C34.8461 14.047 34.6489 14.005 34.5533 13.8575C34.4576 13.71 34.4996 13.5128 34.6471 13.4172L45.4518 6.40873C45.5993 6.31304 45.7964 6.35506 45.8921 6.50257Z" fill="#3D0A19"/>
<path fill-rule="evenodd" clip-rule="evenodd" d="M32.8879 13.3731C31.6619 13.3731 30.668 14.367 30.668 15.593C30.668 16.819 31.6619 17.8129 32.8879 17.8129C34.114 17.8129 35.1079 16.819 35.1079 15.593C35.1079 14.367 34.114 13.3731 32.8879 13.3731ZM30.0312 15.593C30.0312 14.0153 31.3102 12.7363 32.8879 12.7363C34.4656 12.7363 35.7446 14.0153 35.7446 15.593C35.7446 17.1707 34.4656 18.4497 32.8879 18.4497C31.3102 18.4497 30.0312 17.1707 30.0312 15.593Z" fill="#3D0A19"/>
<path fill-rule="evenodd" clip-rule="evenodd" d="M32.8879 35.0274C31.6619 35.0274 30.668 36.0213 30.668 37.2473C30.668 38.4733 31.6619 39.4672 32.8879 39.4672C34.114 39.4672 35.1079 38.4733 35.1079 37.2473C35.1079 36.0213 34.114 35.0274 32.8879 35.0274ZM30.0312 37.2473C30.0312 35.6696 31.3102 34.3906 32.8879 34.3906C34.4656 34.3906 35.7446 35.6696 35.7446 37.2473C35.7446 38.825 34.4656 40.104 32.8879 40.104C31.3102 40.104 30.0312 38.825 30.0312 37.2473Z" fill="#3D0A19"/>
<path fill-rule="evenodd" clip-rule="evenodd" d="M31.6311 0.636734C30.4051 0.636734 29.4111 1.63064 29.4111 2.85668C29.4111 4.08272 30.4051 5.07662 31.6311 5.07662C32.8571 5.07662 33.851 4.08272 33.851 2.85668C33.851 1.63064 32.8571 0.636734 31.6311 0.636734ZM28.7744 2.85668C28.7744 1.27898 30.0534 0 31.6311 0C33.2088 0 34.4878 1.27898 34.4878 2.85668C34.4878 4.43437 33.2088 5.71335 31.6311 5.71335C30.0534 5.71335 28.7744 4.43437 28.7744 2.85668Z" fill="#3D0A19"/>
<path fill-rule="evenodd" clip-rule="evenodd" d="M9.97777 35.0274C8.75173 35.0274 7.75783 36.0213 7.75783 37.2473C7.75783 38.4733 8.75173 39.4672 9.97777 39.4672C11.2038 39.4672 12.1977 38.4733 12.1977 37.2473C12.1977 36.0213 11.2038 35.0274 9.97777 35.0274ZM7.12109 37.2473C7.12109 35.6696 8.40007 34.3906 9.97777 34.3906C11.5555 34.3906 12.8344 35.6696 12.8344 37.2473C12.8344 38.825 11.5555 40.104 9.97777 40.104C8.40007 40.104 7.12109 38.825 7.12109 37.2473Z" fill="#3D0A19"/>
<path fill-rule="evenodd" clip-rule="evenodd" d="M12.5139 19.7305C11.2879 19.7305 10.294 20.7244 10.294 21.9504C10.294 23.1765 11.2879 24.1704 12.5139 24.1704C13.7399 24.1704 14.7338 23.1765 14.7338 21.9504C14.7338 20.7244 13.7399 19.7305 12.5139 19.7305ZM9.65723 21.9504C9.65723 20.3727 10.9362 19.0938 12.5139 19.0938C14.0916 19.0938 15.3706 20.3727 15.3706 21.9504C15.3706 23.5281 14.0916 24.8071 12.5139 24.8071C10.9362 24.8071 9.65723 23.5281 9.65723 21.9504Z" fill="#3D0A19"/>
<path fill-rule="evenodd" clip-rule="evenodd" d="M27.5882 31.9225C27.713 31.7986 27.9145 31.7994 28.0384 31.9241L31.2057 35.1139C31.3296 35.2386 31.3289 35.4402 31.2041 35.5641C31.0793 35.688 30.8778 35.6873 30.7539 35.5625L27.5866 32.3728C27.4627 32.248 27.4634 32.0464 27.5882 31.9225Z" fill="#3D0A19"/>
<path fill-rule="evenodd" clip-rule="evenodd" d="M31.2873 17.2114C31.4484 17.282 31.5217 17.4698 31.4512 17.6308L28.1042 25.2682C28.0336 25.4292 27.8458 25.5026 27.6848 25.432C27.5238 25.3614 27.4504 25.1737 27.521 25.0126L30.868 17.3752C30.9385 17.2142 31.1263 17.1408 31.2873 17.2114Z" fill="#3D0A19"/>
<path fill-rule="evenodd" clip-rule="evenodd" d="M22.0448 17.9723C22.2192 17.9501 22.3786 18.0735 22.4008 18.2479L23.0298 23.1898C23.052 23.3642 22.9286 23.5236 22.7542 23.5458C22.5797 23.568 22.4203 23.4446 22.3981 23.2702L21.7692 18.3283C21.747 18.1539 21.8704 17.9945 22.0448 17.9723Z" fill="#3D0A19"/>
<path fill-rule="evenodd" clip-rule="evenodd" d="M26.2285 13.5825C26.2844 13.4158 26.4649 13.3259 26.6316 13.3818L30.4503 14.6622C30.617 14.7181 30.7068 14.8986 30.6509 15.0653C30.595 15.232 30.4146 15.3218 30.2479 15.2659L26.4292 13.9855C26.2625 13.9296 26.1726 13.7492 26.2285 13.5825Z" fill="#3D0A19"/>
<path fill-rule="evenodd" clip-rule="evenodd" d="M32.8887 17.8135C33.0645 17.8135 33.207 17.956 33.207 18.1318V34.687C33.207 34.8628 33.0645 35.0054 32.8887 35.0054C32.7129 35.0054 32.5703 34.8628 32.5703 34.687V18.1318C32.5703 17.956 32.7129 17.8135 32.8887 17.8135Z" fill="#3D0A19"/>
<path fill-rule="evenodd" clip-rule="evenodd" d="M25.2507 36.9287C25.4265 36.9287 25.569 37.0712 25.569 37.2471C25.569 39.199 24.5264 40.8733 23.0267 42.0492C21.5283 43.224 19.55 43.9224 17.6133 43.9224C17.4375 43.9224 17.2949 43.7799 17.2949 43.6041C17.2949 43.4283 17.4375 43.2857 17.6133 43.2857C19.4054 43.2857 21.2458 42.6364 22.6339 41.5481C24.0206 40.4608 24.9323 38.9566 24.9323 37.2471C24.9323 37.0712 25.0748 36.9287 25.2507 36.9287Z" fill="#3D0A19"/>
<path fill-rule="evenodd" clip-rule="evenodd" d="M11.2559 39.7297C11.2297 39.5803 11.0993 39.4668 10.9424 39.4668C10.7666 39.4668 10.624 39.6093 10.624 39.7852H10.9424C10.624 39.7852 10.624 39.7856 10.624 39.7861L10.624 39.787L10.624 39.7889L10.6241 39.7926L10.6244 39.8002C10.6246 39.8052 10.6249 39.8103 10.6254 39.8154C10.6263 39.8256 10.6277 39.836 10.6295 39.8466C10.6331 39.8677 10.6385 39.89 10.646 39.9137C10.6607 39.9607 10.6843 40.0168 10.721 40.0849C10.7939 40.2203 10.9264 40.4184 11.1703 40.7087L11.1703 40.7088L11.1728 40.7117C12.742 42.5346 14.9575 43.9222 17.6139 43.9222C17.7897 43.9222 17.9322 43.7797 17.9322 43.6039C17.9322 43.428 17.7897 43.2855 17.6139 43.2855C15.1944 43.2855 13.1424 42.0232 11.6567 40.2977C11.4297 40.0274 11.3266 39.8666 11.2817 39.783C11.2707 39.7626 11.2636 39.7477 11.2593 39.7377C11.2579 39.7345 11.2568 39.7318 11.2559 39.7297Z" fill="#3D0A19"/>
<path fill-rule="evenodd" clip-rule="evenodd" d="M19.8056 31.3726C19.8868 31.5286 19.8262 31.7208 19.6702 31.802L12.0328 35.7779C11.8769 35.8591 11.6846 35.7985 11.6034 35.6425C11.5222 35.4866 11.5828 35.2943 11.7388 35.2131L19.3762 31.2372C19.5322 31.156 19.7244 31.2166 19.8056 31.3726Z" fill="#3D0A19"/>
<path fill-rule="evenodd" clip-rule="evenodd" d="M14.6973 22.6876C14.824 22.5657 15.0255 22.5696 15.1474 22.6963L19.1234 26.8295C19.2453 26.9562 19.2413 27.1577 19.1146 27.2796C18.9879 27.4015 18.7864 27.3976 18.6645 27.2709L14.6885 23.1377C14.5666 23.011 14.5705 22.8095 14.6973 22.6876Z" fill="#3D0A19"/>
<path fill-rule="evenodd" clip-rule="evenodd" d="M10.9639 8.62007C11.0314 8.45771 11.2177 8.38081 11.3801 8.4483L17.1081 10.8294C17.2705 10.8969 17.3474 11.0832 17.2799 11.2456C17.2124 11.4079 17.0261 11.4848 16.8637 11.4173L11.1357 9.03626C10.9733 8.96877 10.8964 8.78244 10.9639 8.62007Z" fill="#3D0A19"/>
<path fill-rule="evenodd" clip-rule="evenodd" d="M17.8687 16.6825C17.9739 16.8234 17.945 17.0229 17.8042 17.1281L13.9855 19.9809C13.8446 20.0861 13.6451 20.0573 13.5399 19.9164C13.4347 19.7755 13.4635 19.576 13.6044 19.4708L17.4231 16.618C17.564 16.5128 17.7635 16.5417 17.8687 16.6825Z" fill="#3D0A19"/>
<path fill-rule="evenodd" clip-rule="evenodd" d="M11.4439 23.9389C11.5861 24.0424 11.6174 24.2416 11.5139 24.3837L3.87655 34.8739C3.77306 35.016 3.57393 35.0474 3.43178 34.9439C3.28964 34.8404 3.2583 34.6413 3.36179 34.4991L10.9992 24.0089C11.1027 23.8668 11.3018 23.8354 11.4439 23.9389Z" fill="#3D0A19"/>
<path fill-rule="evenodd" clip-rule="evenodd" d="M10.2814 22.2526C10.3625 22.4086 10.3018 22.6008 10.1458 22.6819L1.20557 27.3318C1.04958 27.4129 0.85735 27.3522 0.776218 27.1962C0.695086 27.0402 0.755773 26.848 0.911765 26.7669L9.852 22.117C10.008 22.0359 10.2002 22.0966 10.2814 22.2526Z" fill="#3D0A19"/>
<path fill-rule="evenodd" clip-rule="evenodd" d="M3.36811 14.1177C3.47624 13.9791 3.6763 13.9543 3.81495 14.0625L10.9582 19.6333C11.0968 19.7414 11.1215 19.9414 11.0134 20.0801C10.9053 20.2187 10.7052 20.2435 10.5666 20.1353L3.42338 14.5645C3.28473 14.4564 3.25998 14.2564 3.36811 14.1177Z" fill="#3D0A19"/>
<path opacity="0.4" fill-rule="evenodd" clip-rule="evenodd" d="M44.3675 15.9269C43.8448 15.9269 43.421 16.3506 43.421 16.8733C43.421 17.396 43.8448 17.8198 44.3675 17.8198C44.8902 17.8198 45.3139 17.396 45.3139 16.8733C45.3139 16.3506 44.8902 15.9269 44.3675 15.9269ZM40.2373 16.8733C40.2373 14.5923 42.0864 12.7432 44.3675 12.7432C46.6485 12.7432 48.4976 14.5923 48.4976 16.8733C48.4976 19.1544 46.6485 21.0035 44.3675 21.0035C42.0864 21.0035 40.2373 19.1544 40.2373 16.8733Z" fill="#3D0A19"/>
<path opacity="0.4" fill-rule="evenodd" clip-rule="evenodd" d="M23.9925 27.3829C23.4698 27.3829 23.046 27.8067 23.046 28.3294C23.046 28.8521 23.4698 29.2758 23.9925 29.2758C24.5152 29.2758 24.9389 28.8521 24.9389 28.3294C24.9389 27.8067 24.5152 27.3829 23.9925 27.3829ZM19.8623 28.3294C19.8623 26.0484 21.7114 24.1992 23.9925 24.1992C26.2735 24.1992 28.1226 26.0484 28.1226 28.3294C28.1226 30.6104 26.2735 32.4595 23.9925 32.4595C21.7114 32.4595 19.8623 30.6104 19.8623 28.3294Z" fill="#3D0A19"/>
<path fill-rule="evenodd" clip-rule="evenodd" d="M8.69652 5.73537C7.47048 5.73537 6.47658 6.72927 6.47658 7.95531C6.47658 9.18135 7.47048 10.1752 8.69652 10.1752C9.92256 10.1752 10.9165 9.18135 10.9165 7.95531C10.9165 6.72927 9.92256 5.73537 8.69652 5.73537ZM5.83984 7.95531C5.83984 6.37761 7.11882 5.09863 8.69652 5.09863C10.2742 5.09863 11.5532 6.37761 11.5532 7.95531C11.5532 9.53301 10.2742 10.812 8.69652 10.812C7.11882 10.812 5.83984 9.53301 5.83984 7.95531Z" fill="#3D0A19"/>
<path opacity="0.4" fill-rule="evenodd" clip-rule="evenodd" d="M21.4329 12.0861C20.9102 12.0861 20.4864 12.5098 20.4864 13.0325C20.4864 13.5552 20.9102 13.979 21.4329 13.979C21.9556 13.979 22.3794 13.5552 22.3794 13.0325C22.3794 12.5098 21.9556 12.0861 21.4329 12.0861ZM17.3027 13.0325C17.3027 10.7515 19.1519 8.90234 21.4329 8.90234C23.7139 8.90234 25.5631 10.7515 25.5631 13.0325C25.5631 15.3135 23.7139 17.1627 21.4329 17.1627C19.1519 17.1627 17.3027 15.3135 17.3027 13.0325Z" fill="#3D0A19"/>
</svg>
