<svg width="171" height="171" viewBox="0 0 171 171" fill="none" xmlns="http://www.w3.org/2000/svg">
<path d="M35.73 57.0403C35.73 36.9329 35.73 26.8793 41.9765 20.6328C48.2231 14.3862 58.2767 14.3862 78.384 14.3862H92.602C112.709 14.3862 122.763 14.3862 129.009 20.6328C135.256 26.8793 135.256 36.9329 135.256 57.0403V113.912C135.256 134.019 135.256 144.073 129.009 150.32C122.763 156.566 112.709 156.566 92.602 156.566H78.384C58.2767 156.566 48.2231 156.566 41.9765 150.32C35.73 144.073 35.73 134.019 35.73 113.912V57.0403Z" stroke="#7509FF" stroke-width="5.6872"/>
<path d="M35.7298 29.1455C28.7979 29.8273 24.132 31.3684 20.6494 34.8509C14.4028 41.0974 14.4028 51.1511 14.4028 71.2588V99.6948C14.4028 119.802 14.4028 129.855 20.6494 136.102C24.132 139.585 28.7979 141.125 35.7298 141.807" stroke="#7509FF" stroke-width="5.6872"/>
<path d="M135.256 29.1455C142.188 29.8273 146.853 31.3684 150.336 34.8509C156.583 41.0974 156.583 51.1511 156.583 71.2588V99.6948C156.583 119.802 156.583 129.855 150.336 136.102C146.853 139.585 142.188 141.125 135.256 141.807" stroke="#7509FF" stroke-width="5.6872"/>
<path d="M64.166 92.585H106.82" stroke="#7509FF" stroke-width="5.6872" stroke-linecap="round"/>
<path d="M64.166 64.1494H106.82" stroke="#7509FF" stroke-width="5.6872" stroke-linecap="round"/>
<path d="M64.166 121.021H85.493" stroke="#7509FF" stroke-width="5.6872" stroke-linecap="round"/>
</svg>
