<svg width="29" height="29" viewBox="0 0 29 29" fill="none" xmlns="http://www.w3.org/2000/svg">
<path d="M2.175 20.6625C2.175 24.066 4.93405 26.825 8.3375 26.825H9.0625C9.66311 26.825 10.15 27.3119 10.15 27.9125C10.15 28.5131 9.66311 29 9.0625 29H8.3375C3.73282 29 0 25.2672 0 20.6625V19.9375C0 19.3369 0.486896 18.85 1.0875 18.85C1.6881 18.85 2.175 19.3369 2.175 19.9375V20.6625ZM2.175 8.3375C2.175 4.93406 4.93405 2.175 8.3375 2.175H9.0625C9.66311 2.175 10.15 1.68809 10.15 1.0875C10.15 0.48691 9.66311 0 9.0625 0H8.3375C3.73282 0 0 3.73288 0 8.3375V9.0625C0 9.66309 0.486896 10.15 1.0875 10.15C1.6881 10.15 2.175 9.66309 2.175 9.0625V8.3375ZM20.6625 26.825C24.0659 26.825 26.825 24.066 26.825 20.6625V19.9375C26.825 19.3369 27.3119 18.85 27.9125 18.85C28.5131 18.85 29 19.3369 29 19.9375V20.6625C29 25.2672 25.2671 29 20.6625 29H19.9375C19.3369 29 18.85 28.5131 18.85 27.9125C18.85 27.3119 19.3369 26.825 19.9375 26.825H20.6625ZM26.825 8.3375C26.825 4.93406 24.0659 2.175 20.6625 2.175H19.9375C19.3369 2.175 18.85 1.68809 18.85 1.0875C18.85 0.48691 19.3369 0 19.9375 0H20.6625C25.2671 0 29 3.73288 29 8.3375V9.0625C29 9.66309 28.5131 10.15 27.9125 10.15C27.3119 10.15 26.825 9.66309 26.825 9.0625V8.3375ZM9.0625 24.65C6.45985 24.65 4.35 22.5401 4.35 19.9375V9.0625C4.35 6.45989 6.45985 4.35 9.0625 4.35H19.9375C22.5401 4.35 24.65 6.45989 24.65 9.0625V19.9375C24.65 22.5401 22.5401 24.65 19.9375 24.65H9.0625ZM10.15 10.5124V18.4865C10.15 19.5894 11.3324 20.2885 12.2988 19.757L19.5482 15.7699C20.5498 15.2191 20.5498 13.7798 19.5482 13.2289L12.2988 9.24187C11.3324 8.71029 10.15 9.40948 10.15 10.5124Z" fill="#366EFF"/>
</svg>
