<svg width="171" height="171" viewBox="0 0 171 171" fill="none" xmlns="http://www.w3.org/2000/svg">
<path d="M99.5688 124.576C99.5688 114.591 99.5688 109.599 101.965 106.014C103.002 104.461 104.335 103.128 105.888 102.091C109.474 99.6943 114.466 99.6943 124.45 99.6943C134.435 99.6943 139.427 99.6943 143.013 102.091C144.565 103.128 145.898 104.461 146.935 106.014C149.332 109.599 149.332 114.591 149.332 124.576C149.332 134.56 149.332 139.552 146.935 143.138C145.898 144.691 144.565 146.024 143.013 147.061C139.427 149.457 134.435 149.457 124.45 149.457C114.466 149.457 109.474 149.457 105.888 147.061C104.335 146.024 103.002 144.691 101.965 143.138C99.5688 139.552 99.5688 134.56 99.5688 124.576Z" stroke="#00AFA5" stroke-width="5.6872"/>
<path d="M21.3696 124.576C21.3696 114.591 21.3696 109.599 23.7658 106.014C24.8031 104.461 26.1361 103.128 27.6885 102.091C31.2747 99.6943 36.2668 99.6943 46.2511 99.6943C56.2355 99.6943 61.2276 99.6943 64.8138 102.091C66.3662 103.128 67.6992 104.461 68.7365 106.014C71.1327 109.599 71.1327 114.591 71.1327 124.576C71.1327 134.56 71.1327 139.552 68.7365 143.138C67.6992 144.691 66.3662 146.024 64.8138 147.061C61.2276 149.457 56.2355 149.457 46.2511 149.457C36.2668 149.457 31.2747 149.457 27.6885 147.061C26.1361 146.024 24.8031 144.691 23.7658 143.138C21.3696 139.552 21.3696 134.56 21.3696 124.576Z" stroke="#00AFA5" stroke-width="5.6872"/>
<path d="M21.3696 46.3766C21.3696 36.3923 21.3696 31.4002 23.7658 27.814C24.8031 26.2616 26.1361 24.9286 27.6885 23.8913C31.2747 21.4951 36.2668 21.4951 46.2511 21.4951C56.2355 21.4951 61.2276 21.4951 64.8138 23.8913C66.3662 24.9286 67.6992 26.2616 68.7365 27.814C71.1327 31.4002 71.1327 36.3923 71.1327 46.3766C71.1327 56.3609 71.1327 61.3531 68.7365 64.9392C67.6992 66.4917 66.3662 67.8246 64.8138 68.862C61.2276 71.2581 56.2355 71.2581 46.2511 71.2581C36.2668 71.2581 31.2747 71.2581 27.6885 68.862C26.1361 67.8246 24.8031 66.4917 23.7658 64.9392C21.3696 61.3531 21.3696 56.3609 21.3696 46.3766Z" stroke="#00AFA5" stroke-width="5.6872"/>
<path d="M99.5688 46.3765H149.332" stroke="#00AFA5" stroke-width="5.6872" stroke-linecap="round" stroke-linejoin="round"/>
<path d="M124.45 21.4951V71.2581" stroke="#00AFA5" stroke-width="5.6872" stroke-linecap="round" stroke-linejoin="round"/>
</svg>
