<svg width="16" height="15" viewBox="0 0 16 15" fill="none" xmlns="http://www.w3.org/2000/svg">
<path fill-rule="evenodd" clip-rule="evenodd" d="M7.74668 1.90019C11.2598 0.101795 13.4082 1.13465 14.3087 2.90541C14.79 3.85184 15.1775 5.53076 14.9475 7.28267H11.692L11.2669 6.3971C11.0911 5.97877 10.5025 5.93491 10.2735 6.33868L9.92663 6.94965L9.21616 4.12382C9.10191 3.55484 8.28784 3.52106 8.13421 4.08742L7.37333 6.88674L7.12133 5.95432C7.00932 5.53356 6.46648 5.39599 6.1708 5.73013L4.79316 7.28267H0.545637C0.315658 5.53076 0.703188 3.85184 1.18461 2.90541C2.08493 1.13465 4.23333 0.101795 7.74668 1.90019ZM14.7144 8.39505C13.9615 10.9638 10.081 13.962 7.74668 14.3754C5.41235 13.9618 1.53182 10.964 0.778976 8.39524H5.0405C5.22344 8.39524 5.38566 8.30675 5.48702 8.17067L6.31677 7.23563L6.83404 9.15984C6.98076 9.70866 7.75956 9.70306 7.90703 9.16171L8.65035 6.42884L9.18666 8.56231C9.31229 9.0652 9.99458 9.13128 10.2225 8.67599L10.7151 7.80778L10.8449 8.07789C10.9399 8.2767 11.1379 8.39281 11.3446 8.393L14.7144 8.39505Z" fill="#CA6B6E"/>
</svg>
