<svg width="171" height="171" viewBox="0 0 171 171" fill="none" xmlns="http://www.w3.org/2000/svg">
<path d="M21.5121 128.117C21.5117 127.657 21.5117 127.184 21.5117 126.696V44.2312C21.5117 36.2683 21.5117 32.2839 23.0614 29.2426C24.4245 26.5672 26.598 24.3937 29.2733 23.0306C32.3147 21.481 36.2991 21.481 44.262 21.481H126.726C134.689 21.481 138.669 21.481 141.71 23.0306C144.385 24.3937 146.563 26.5672 147.925 29.2426C149.474 32.281 149.474 36.2605 149.474 44.2078V126.716C149.474 130.164 149.474 132.864 149.347 135.064M21.5121 128.117C21.5175 135.143 21.6068 138.821 23.0614 141.676C24.4245 144.351 26.598 146.532 29.2733 147.895C32.3117 149.443 36.2913 149.443 44.2386 149.443H126.751C134.698 149.443 138.672 149.443 141.71 147.895C144.385 146.532 146.563 144.351 147.925 141.676C148.802 139.955 149.182 137.936 149.347 135.064M21.5121 128.117L55.4073 88.5722L55.4173 88.5615C58.4236 85.0539 59.9292 83.2973 61.7151 82.6639C63.2838 82.108 64.9965 82.1208 66.5574 82.6987C68.3362 83.3577 69.8178 85.1343 72.7811 88.6902L91.7707 111.477C94.5141 114.77 95.8932 116.425 97.5681 117.089C99.0461 117.675 100.675 117.741 102.2 117.291C103.935 116.779 105.463 115.252 108.517 112.197L112.051 108.664C115.161 105.553 116.716 103.999 118.476 103.491C120.022 103.045 121.675 103.141 123.162 103.755C124.855 104.454 126.229 106.166 128.976 109.601L149.347 135.064M149.347 135.064L149.474 135.222M106.82 64.135C102.893 64.135 99.7108 60.9521 99.7108 57.026C99.7108 53.0998 102.893 49.917 106.82 49.917C110.746 49.917 113.929 53.0998 113.929 57.026C113.929 60.9521 110.746 64.135 106.82 64.135Z" stroke="#0989FF" stroke-width="5.6872" stroke-linecap="round" stroke-linejoin="round"/>
</svg>
