<svg width="29" height="29" viewBox="0 0 29 29" fill="none" xmlns="http://www.w3.org/2000/svg">
<rect x="1.03846" y="1.03846" width="26.9231" height="26.9231" rx="13.4615" fill="white"/>
<rect x="1.03846" y="1.03846" width="26.9231" height="26.9231" rx="13.4615" stroke="#366EFF" stroke-width="1.92308"/>
<path d="M15.4618 13.5384C15.4618 14.0672 15.0291 14.4999 14.5003 14.4999C13.9715 14.4999 13.5388 14.0672 13.5388 13.5384C13.5388 13.0095 13.9715 12.5768 14.5003 12.5768C15.0291 12.5768 15.4618 13.0095 15.4618 13.5384ZM18.1061 13.5384C18.1061 16.4615 15.8609 18.2932 14.8993 18.9422C14.7791 19.0288 14.6397 19.0672 14.5003 19.0672C14.3609 19.0672 14.2215 19.0288 14.0965 18.9422C13.1349 18.2932 10.8945 16.4663 10.8945 13.5384C10.8945 11.4807 12.4426 9.93262 14.5003 9.93262C16.5532 9.93262 18.1061 11.4807 18.1061 13.5384ZM16.4234 13.5384C16.4234 12.4759 15.5628 11.6153 14.5003 11.6153C13.4378 11.6153 12.5772 12.4759 12.5772 13.5384C12.5772 14.6009 13.4378 15.4615 14.5003 15.4615C15.5628 15.4615 16.4234 14.6009 16.4234 13.5384Z" fill="#366EFF"/>
</svg>
