<svg width="33" height="61" viewBox="0 0 33 61" fill="none" xmlns="http://www.w3.org/2000/svg">
<path d="M0.0888672 46.983C0.0888672 44.6367 0.733704 42.4559 1.99113 40.4132C3.24856 38.3705 5.02186 36.6867 7.31103 35.3341V7.95072C7.31103 5.74238 8.18156 3.8653 9.95486 2.34707C11.7282 0.828842 13.9206 0.0283203 16.4999 0.0283203C19.1115 0.0283203 21.304 0.801237 23.0773 2.31947C24.8506 3.8653 25.7533 5.71478 25.7533 7.92311V35.3064C28.0425 36.6591 29.7836 38.3705 31.041 40.3856C32.2984 42.4007 32.911 44.6091 32.911 46.9554C32.911 49.495 32.1695 51.869 30.7186 54.0221C29.2677 56.1752 27.2687 57.8867 24.7538 59.1288C22.239 60.371 19.4984 61.0059 16.4999 61.0059C13.5337 61.0059 10.7931 60.371 8.27829 59.1288C5.76342 57.8867 3.76443 56.1752 2.28131 54.0221C0.798188 51.869 0.0888672 49.5226 0.0888672 46.983ZM5.76343 46.983C5.76343 49.5502 6.8274 51.7585 8.92312 53.5804C11.0188 55.4023 13.5659 56.3132 16.5322 56.3132C19.5307 56.3132 22.11 55.4023 24.2702 53.5528C26.4304 51.7033 27.5266 49.5226 27.5266 47.0106C27.5266 45.2992 27.0108 43.6981 25.979 42.2351C24.9473 40.7721 23.5287 39.6403 21.7231 38.8398L20.8203 38.4533C20.4979 38.3429 20.3367 38.0669 20.3367 37.6528V7.95072C20.3367 7.06738 19.9821 6.32207 19.2405 5.71478C18.4989 5.13509 17.5962 4.83145 16.4999 4.83145C15.4682 4.83145 14.5654 5.13509 13.8239 5.71478C13.0823 6.29447 12.7277 7.03978 12.7277 7.95072V37.5976C12.7277 38.0117 12.5664 38.2877 12.2763 38.3981L11.4057 38.7846C9.63244 39.5851 8.24604 40.7169 7.24655 42.1799C6.24705 43.6429 5.76343 45.2163 5.76343 46.983ZM8.27829 46.983C8.27829 48.9429 9.05209 50.6268 10.6319 52.007C12.2118 53.3872 14.0818 54.0773 16.3065 54.0773C18.5312 54.0773 20.4334 53.3872 22.0778 52.007C23.7221 50.6268 24.5282 48.9429 24.5282 47.0106C24.5282 45.2716 23.8188 43.7257 22.4324 42.4007C21.046 41.0757 19.3372 40.2752 17.3382 40.0544V19.7377C17.3382 19.5721 17.2415 19.3788 17.0158 19.2132C16.7901 19.02 16.5644 18.9372 16.3065 18.9372C16.0163 18.9372 15.7906 19.02 15.6294 19.158C15.4682 19.3236 15.3715 19.4893 15.3715 19.7377V39.9992C13.4047 40.2476 11.7282 41.0205 10.3418 42.3455C8.95536 43.6981 8.27829 45.2163 8.27829 46.983Z" fill="#37240A"/>
</svg>
