<svg width="171" height="171" viewBox="0 0 171 171" fill="none" xmlns="http://www.w3.org/2000/svg">
<path d="M139.277 49.917C140.903 40.6414 133.765 32.1445 124.348 32.1445H46.691C37.2741 32.1445 30.1366 40.6414 31.7618 49.917" stroke="#FF6B00" stroke-width="5.6872"/>
<path d="M124.62 32.1446C124.822 30.3028 124.923 29.3817 124.924 28.621C124.941 21.344 119.459 15.2297 112.223 14.4533C111.467 14.3721 110.541 14.3721 108.688 14.3721H62.3529C60.5 14.3721 59.5734 14.3721 58.8171 14.4533C51.5816 15.2297 46.1004 21.344 46.1162 28.6209C46.1179 29.3817 46.2188 30.3026 46.4204 32.1446" stroke="#FF6B00" stroke-width="5.6872"/>
<path d="M103.871 96.9495C107.841 99.4107 107.841 105.781 103.871 108.242L79.9023 123.101C76.0442 125.492 71.3032 122.38 71.3032 117.455V87.737C71.3032 82.8126 76.0442 79.6995 79.9023 82.091L103.871 96.9495Z" stroke="#FF6B00" stroke-width="5.6872"/>
<path d="M17.1575 98.2085C13.9867 75.7184 12.4013 64.4737 19.1396 57.1954C25.8779 49.917 37.8737 49.917 61.8652 49.917H109.177C133.169 49.917 145.164 49.917 151.903 57.1954C158.641 64.4737 157.056 75.7184 153.885 98.2085L150.878 119.535C148.391 137.172 147.148 145.99 140.77 151.271C134.392 156.552 124.985 156.552 106.17 156.552H64.8721C46.0578 156.552 36.6506 156.552 30.2724 151.271C23.8943 145.99 22.651 137.172 20.1644 119.535L17.1575 98.2085Z" stroke="#FF6B00" stroke-width="5.6872"/>
</svg>
